<svg viewBox="0 0 24 24" xmlns="http://www.w3.org/2000/svg"><path d="M22.28 9.37c.57-1.7.5-3.56-.2-5.2A6.97 6.97 0 0 0 14.5.78a6.97 6.97 0 0 0-5.17-.62A6.97 6.97 0 0 0 4.14 3.3a6.97 6.97 0 0 0-.84 5.24A6.97 6.97 0 0 0 .94 12a6.97 6.97 0 0 0 .7 6.83 6.97 6.97 0 0 0 7.58 3.39 6.97 6.97 0 0 0 5.17.62A6.97 6.97 0 0 0 23.06 12a6.97 6.97 0 0 0-.78-2.63zM14.75 21.75a5.2 5.2 0 0 1-3.36-1.21l.17-.09 5.56-3.21c.28-.16.46-.46.46-.79v-7.86l2.35 1.36v6.5a5.23 5.23 0 0 1-5.18 5.3zM4.15 17.89a5.22 5.22 0 0 1-.62-3.52l.17.1 5.56 3.21c.28.16.63.16.91 0l6.79-3.92v2.72l-5.65 3.26a5.23 5.23 0 0 1-7.16-1.85zM2.81 7.94A5.22 5.22 0 0 1 5.54 5.6v6.6c0 .32.17.63.46.79l6.79 3.92-2.35 1.36L4.8 15.01A5.23 5.23 0 0 1 2.81 7.94zm16.62 3.87-6.79-3.92 2.35-1.36 5.65 3.26a5.23 5.23 0 0 1-.8 9.42v-6.6a.91.91 0 0 0-.41-.8zm2.34-3.55-.17-.1-5.56-3.21a.91.91 0 0 0-.91 0l-6.79 3.92V6.15l5.65-3.26a5.23 5.23 0 0 1 7.78 5.37zM8.57 13.43 6.22 12.07v-6.5A5.23 5.23 0 0 1 14.8 2.5l-.17.1-5.56 3.2a.91.91 0 0 0-.46.8l-.04 6.83zm1.28-2.77 3.02-1.75 3.02 1.75v3.49l-3.02 1.75-3.02-1.75z" fill="currentColor"/></svg>
